<?xml version="1.0" encoding="UTF-8" standalone="no"?>
<!-- Created with Inkscape (http://www.inkscape.org/) -->
<svg
   xmlns:dc="http://purl.org/dc/elements/1.1/"
   xmlns:cc="http://creativecommons.org/ns#"
   xmlns:rdf="http://www.w3.org/1999/02/22-rdf-syntax-ns#"
   xmlns:svg="http://www.w3.org/2000/svg"
   xmlns="http://www.w3.org/2000/svg"
   xmlns:xlink="http://www.w3.org/1999/xlink"
   xmlns:sodipodi="http://sodipodi.sourceforge.net/DTD/sodipodi-0.dtd"
   xmlns:inkscape="http://www.inkscape.org/namespaces/inkscape"
   width="100"
   height="100"
   id="svg2"
   sodipodi:version="0.32"
   inkscape:version="0.46"
   version="1.0"
   sodipodi:docname="LOGO.svg"
   inkscape:output_extension="org.inkscape.output.svg.inkscape">
  <defs
     id="defs4">
    <linearGradient
       id="linearGradient6122">
      <stop
         style="stop-color:#000000;stop-opacity:1;"
         offset="0"
         id="stop6124" />
      <stop
         style="stop-color:#008000;stop-opacity:1;"
         offset="1"
         id="stop6126" />
    </linearGradient>
    <linearGradient
       id="linearGradient6114">
      <stop
         style="stop-color:#000000;stop-opacity:1;"
         offset="0"
         id="stop6116" />
      <stop
         style="stop-color:#c00000;stop-opacity:1;"
         offset="1"
         id="stop6118" />
    </linearGradient>
    <marker
       inkscape:stockid="RazorWire"
       id="RazorWire"
       refX="0"
       refY="0"
       orient="auto">
       style=&quot;overflow:visible&quot;&gt;
      <path
   id="path3716"
   transform="scale(0.8,0.8)"
   style="fill:#808080;fill-opacity:1;fill-rule:evenodd;stroke:#000000;stroke-width:0.1pt"
   d="M 0.022727273,-0.74009011 L 0.022727273,0.69740989 L -7.7585227,3.0099099 L 10.678977,3.0099099 L 3.4914773,0.69740989 L 3.4914773,-0.74009011 L 10.741477,-2.8963401 L -7.7272727,-2.8963401 L 0.022727273,-0.74009011 z " />
</marker>
    <linearGradient
       id="linearGradient3418">
      <stop
         style="stop-color:#515151;stop-opacity:1;"
         offset="0"
         id="stop3420" />
      <stop
         id="stop3428"
         offset="0.02554492"
         style="stop-color:#8d8d8d;stop-opacity:1;" />
      <stop
         id="stop3426"
         offset="0.06348772"
         style="stop-color:#b3b3b3;stop-opacity:1;" />
      <stop
         style="stop-color:#d6d6d6;stop-opacity:1;"
         offset="0.16240638"
         id="stop3434" />
      <stop
         style="stop-color:#e6e6e6;stop-opacity:1;"
         offset="0.27938345"
         id="stop3430" />
      <stop
         id="stop3432"
         offset="0.43411124"
         style="stop-color:#efefef;stop-opacity:1;" />
      <stop
         style="stop-color:#e5e5e5;stop-opacity:1;"
         offset="0.71705562"
         id="stop3438" />
      <stop
         style="stop-color:#eeeeee;stop-opacity:1"
         offset="1"
         id="stop3422" />
    </linearGradient>
    <linearGradient
       id="linearGradient3402">
      <stop
         style="stop-color:#eeeeee;stop-opacity:1;"
         offset="0"
         id="stop3404" />
      <stop
         id="stop3412"
         offset="0.49907923"
         style="stop-color:#f1f1f1;stop-opacity:1;" />
      <stop
         style="stop-color:#d6d6d6;stop-opacity:1;"
         offset="0.76500827"
         id="stop3414" />
      <stop
         id="stop3410"
         offset="0.87982935"
         style="stop-color:#bcbcbc;stop-opacity:1;" />
      <stop
         style="stop-color:#929292;stop-opacity:1;"
         offset="0.95545048"
         id="stop3416" />
      <stop
         style="stop-color:#545454;stop-opacity:1;"
         offset="1"
         id="stop3406" />
    </linearGradient>
    <linearGradient
       id="linearGradient3372">
      <stop
         style="stop-color:#f7e29b;stop-opacity:1;"
         offset="0"
         id="stop3374" />
      <stop
         style="stop-color:#c0a549;stop-opacity:1;"
         offset="1"
         id="stop3376" />
    </linearGradient>
    <linearGradient
       id="linearGradient3354">
      <stop
         style="stop-color:#0020e3;stop-opacity:1"
         offset="0"
         id="stop3356" />
      <stop
         style="stop-color:#001ab1;stop-opacity:1;"
         offset="1"
         id="stop3358" />
    </linearGradient>
    <inkscape:perspective
       sodipodi:type="inkscape:persp3d"
       inkscape:vp_x="0 : 526.18109 : 1"
       inkscape:vp_y="0 : 1000 : 0"
       inkscape:vp_z="744.09448 : 526.18109 : 1"
       inkscape:persp3d-origin="372.04724 : 350.78739 : 1"
       id="perspective10" />
    <linearGradient
       inkscape:collect="always"
       xlink:href="#linearGradient3354"
       id="linearGradient3360"
       x1="24.483572"
       y1="82.631691"
       x2="27.223612"
       y2="80.146942"
       gradientUnits="userSpaceOnUse"
       spreadMethod="pad"
       gradientTransform="matrix(-1,0,0,1,83.1926,-5.8845232)" />
    <linearGradient
       inkscape:collect="always"
       xlink:href="#linearGradient3372"
       id="linearGradient3378"
       x1="36.128139"
       y1="87.03347"
       x2="38.437691"
       y2="84.75"
       gradientUnits="userSpaceOnUse"
       gradientTransform="matrix(-1,0,0,1,83.1926,-5.7077465)" />
    <linearGradient
       inkscape:collect="always"
       xlink:href="#linearGradient3372"
       id="linearGradient3394"
       x1="14.448223"
       y1="73.728554"
       x2="15.779029"
       y2="71"
       gradientUnits="userSpaceOnUse"
       gradientTransform="matrix(-1,0,0,1,83.1926,-5.7077465)" />
    <linearGradient
       inkscape:collect="always"
       xlink:href="#linearGradient3402"
       id="linearGradient3408"
       x1="25.125"
       y1="55.8125"
       x2="36.625"
       y2="67.5"
       gradientUnits="userSpaceOnUse"
       gradientTransform="matrix(-1,0,0,1,83.1926,-5.7077465)" />
    <linearGradient
       inkscape:collect="always"
       xlink:href="#linearGradient3418"
       id="linearGradient3424"
       x1="40.588028"
       y1="63.615028"
       x2="52.133263"
       y2="74.927528"
       gradientUnits="userSpaceOnUse"
       gradientTransform="matrix(-1,0,0,1,83.1926,-5.7077465)" />
    <linearGradient
       inkscape:collect="always"
       xlink:href="#linearGradient6114"
       id="linearGradient6120"
       x1="39.508125"
       y1="38.44574"
       x2="46.227203"
       y2="20.945299"
       gradientUnits="userSpaceOnUse" />
    <linearGradient
       inkscape:collect="always"
       xlink:href="#linearGradient6122"
       id="linearGradient6144"
       x1="45.217407"
       y1="45.68145"
       x2="52.151493"
       y2="37.627613"
       gradientUnits="userSpaceOnUse" />
  </defs>
  <sodipodi:namedview
     id="base"
     pagecolor="#ffffff"
     bordercolor="#666666"
     borderopacity="1.0"
     inkscape:pageopacity="0.0"
     inkscape:pageshadow="2"
     inkscape:zoom="5.53"
     inkscape:cx="50"
     inkscape:cy="50"
     inkscape:document-units="px"
     inkscape:current-layer="layer1"
     showgrid="false"
     inkscape:window-width="1278"
     inkscape:window-height="739"
     inkscape:window-x="0"
     inkscape:window-y="15"
     showborder="true"
     borderlayer="false" />
  <metadata
     id="metadata7">
    <rdf:RDF>
      <cc:Work
         rdf:about="">
        <dc:format>image/svg+xml</dc:format>
        <dc:type
           rdf:resource="http://purl.org/dc/dcmitype/StillImage" />
      </cc:Work>
    </rdf:RDF>
  </metadata>
  <g
     inkscape:groupmode="layer"
     id="layer2"
     style="display:inline">
    <path
       style="fill:#0024ee;fill-opacity:1;stroke:none;stroke-width:0.75;stroke-linecap:round;stroke-linejoin:round;stroke-miterlimit:4;stroke-opacity:1"
       d="M 81.00997,60.698698 L 48.894263,38.653093 L 3.7423948,59.028305 L 29.122096,95.918134 L 53.766323,76.361579 L 61.166191,72.867961 L 80.987783,61.226146 L 81.00997,60.698698 z"
       id="rect2383"
       sodipodi:nodetypes="cccccccc" />
  </g>
  <g
     inkscape:label="Ebene 1"
     inkscape:groupmode="layer"
     id="layer1"
     style="display:inline">
    <path
       style="fill:#001ed5;fill-opacity:1;stroke:none;stroke-width:0.81999999;stroke-linecap:round;stroke-linejoin:round;stroke-miterlimit:4;stroke-opacity:1"
       d="M 53.403839,76.108257 L 54.851435,76.539809 L 54.196114,77.23117 L 53.116137,76.735684 L 53.403839,76.108257 z"
       id="rect6164"
       sodipodi:nodetypes="ccccc" />
    <path
       style="fill:url(#linearGradient3360);fill-opacity:1;stroke:none;stroke-width:0.69999999;stroke-linecap:round;stroke-linejoin:round;stroke-miterlimit:4;stroke-opacity:1"
       d="M 61.338582,73.167441 L 56.123669,68.814315 L 53.715087,73.63148 L 54.311708,76.857655 C 54.311708,76.857655 57.165056,77.161727 58.96393,76.24966 C 60.750385,75.343889 61.338582,73.167441 61.338582,73.167441 z"
       id="rect3351"
       sodipodi:nodetypes="cccczc" />
    <path
       style="fill:url(#linearGradient3394);fill-opacity:1;stroke:none;stroke-width:0.75;stroke-linecap:round;stroke-linejoin:round;stroke-miterlimit:4;stroke-opacity:1"
       d="M 79.428467,60.738856 L 59.8176,61.354754 L 60.2551,72.573504 L 80.329894,60.723607 L 79.428467,60.738856 z"
       id="rect3340"
       sodipodi:nodetypes="ccccc" />
    <path
       sodipodi:nodetypes="ccccc"
       id="path3343"
       d="M 51.973431,74.824555 L 30.410931,75.824555 L 29.676556,94.27768 L 53.285931,75.387055 L 51.973431,74.824555 z"
       style="fill:url(#linearGradient3378);fill-opacity:1;stroke:none;stroke-width:0.75;stroke-linecap:round;stroke-linejoin:round;stroke-miterlimit:4;stroke-opacity:1" />
    <path
       sodipodi:nodetypes="ccccc"
       id="path3338"
       d="M 10.191478,53.738578 L 33.686328,84.706976 C 31.442049,87.80358 30.491986,92.983372 29.434567,94.460497 L 4.9015141,59.19425 C 6.4336781,58.440022 6.5593527,56.453829 10.191478,53.738578 z"
       style="fill:#dedede;fill-opacity:1;stroke:none;stroke-width:0.75;stroke-linecap:round;stroke-linejoin:round;stroke-miterlimit:4;stroke-opacity:1" />
    <path
       style="fill:none;fill-rule:evenodd;stroke:#93bff5;stroke-width:0.60000002;stroke-linecap:round;stroke-linejoin:round;stroke-miterlimit:4;stroke-dasharray:none;stroke-opacity:1"
       d="M 60.529032,72.733311 C 58.880443,74.628298 57.41611,70.939383 55.895996,71.397681 C 54.383041,71.85382 54.708778,74.608434 53.780037,75.434515"
       id="path3345"
       sodipodi:nodetypes="czz" />
    <path
       style="fill:#cfcfcf;fill-opacity:1;stroke:none;stroke-width:0.75;stroke-linecap:round;stroke-linejoin:round;stroke-miterlimit:4;stroke-opacity:1"
       d="M 77.196121,57.193662 C 77.196121,57.193662 64.627759,59.875873 60.549995,62.832746 C 56.414752,65.831299 55.836085,71.120379 55.836085,71.120379 C 58.073467,70.91498 58.796767,74.305752 60.329924,72.515846 C 60.329924,72.515846 61.264993,70.234058 64.247177,67.850353 C 67.229361,65.466648 71.993656,65.473592 80.356332,60.720071 C 79.340104,60.440212 79.052275,58.494511 77.196121,57.193662 z"
       id="rect3156"
       sodipodi:nodetypes="czcczcc" />
    <path
       sodipodi:nodetypes="czcczcc"
       id="path3334"
       d="M 77.192215,57.201474 C 77.192215,57.201474 64.627759,59.875873 60.549995,62.832746 C 56.414752,65.831299 55.85171,71.104754 55.85171,71.104754 L 27.517424,43.078346 C 27.517424,43.078346 28.483743,39.671558 30.465927,38.537853 C 32.504159,37.372091 40.681156,38.161092 47.043832,35.782571 L 77.192215,57.201474 z"
       style="fill:url(#linearGradient3408);fill-opacity:1;stroke:none;stroke-width:0.75;stroke-linecap:round;stroke-linejoin:round;stroke-miterlimit:4;stroke-opacity:1" />
    <path
       style="fill:#cfcfcf;fill-opacity:1;stroke:none;stroke-width:0.75;stroke-linecap:round;stroke-linejoin:round;stroke-miterlimit:4;stroke-opacity:1"
       d="M 55.854572,71.113997 C 53.519955,69.33161 50.917724,68.76756 46.97572,70.579336 C 43.085387,72.367363 36.195094,82.749224 33.678515,84.714789 C 31.368215,87.943436 30.484173,92.991185 29.426754,94.46831 C 38.888022,88.281691 42.890712,80.167576 46.939959,77.18398 C 50.948809,74.230149 53.331685,75.420775 53.331685,75.420775 C 54.534736,74.775235 53.799407,72.186693 55.854572,71.113997 z"
       id="rect3329"
       sodipodi:nodetypes="czcczcc" />
    <path
       sodipodi:nodetypes="czcczcc"
       id="path3336"
       d="M 55.854572,71.113997 C 52.663184,68.83161 50.612489,69.236526 46.764783,70.837148 C 42.898232,72.445609 36.655802,82.933853 33.639223,84.711918 L 10.178515,53.761473 C 17.580647,50.636592 18.733116,47.444249 21.423716,45.291056 C 24.144536,43.113679 26.342702,42.145101 27.50356,43.0614 L 55.854572,71.113997 z"
       style="fill:url(#linearGradient3424);fill-opacity:1;stroke:none;stroke-width:0.75;stroke-linecap:round;stroke-linejoin:round;stroke-miterlimit:4;stroke-opacity:1" />
    <path
       style="fill:none;fill-opacity:0;fill-rule:evenodd;stroke:#001bb6;stroke-width:0.69999999;stroke-linecap:round;stroke-linejoin:round;stroke-miterlimit:4;stroke-dasharray:none;stroke-opacity:1"
       d="M 80.986794,61.056769 L 61.16135,72.815691 L 61.645725,73.237566 C 61.645725,73.237566 61.058684,75.237751 58.798529,76.32634 C 56.5323,77.417853 54.356663,76.925066 54.356663,76.925066 L 54.184788,75.862566 L 29.047939,96.280974 L 3.8354076,59.334282"
       id="path3349"
       sodipodi:nodetypes="ccczcccc" />
    <path
       style="fill:none;fill-rule:evenodd;stroke:#7c7c7c;stroke-width:0.2;stroke-linecap:round;stroke-linejoin:round;stroke-miterlimit:4;stroke-dasharray:none;stroke-opacity:1"
       d="M 54.167256,71.609461 C 54.167256,71.609461 52.104819,70.444266 48.953593,71.709968 C 45.802368,72.975671 42.816954,76.375283 42.816954,76.375283"
       id="path3440"
       sodipodi:nodetypes="csc" />
    <path
       sodipodi:nodetypes="csc"
       id="path3442"
       d="M 52.892347,73.859984 C 52.892347,73.859984 51.014538,73.266746 48.43526,74.45389 C 45.956428,75.594803 44.352214,77.315777 44.352214,77.315777"
       style="fill:none;fill-rule:evenodd;stroke:#7c7c7c;stroke-width:0.2;stroke-linecap:round;stroke-linejoin:round;stroke-miterlimit:4;stroke-dasharray:none;stroke-opacity:1" />
    <path
       style="fill:none;fill-rule:evenodd;stroke:#7c7c7c;stroke-width:0.17;stroke-linecap:round;stroke-linejoin:round;stroke-miterlimit:4;stroke-dasharray:none;stroke-opacity:1"
       d="M 59.381093,70.247919 C 59.381093,70.247919 59.993149,68.421332 62.222464,66.925012 C 65.217083,64.915018 69.69128,63.743031 69.69128,63.743031"
       id="path3444"
       sodipodi:nodetypes="csc" />
    <path
       sodipodi:nodetypes="csc"
       id="path3446"
       d="M 57.8747,69.88012 C 57.8747,69.88012 58.359535,67.277645 60.4326,65.687575 C 63.294369,63.492558 65.028795,63.345283 65.028795,63.345283"
       style="fill:none;fill-rule:evenodd;stroke:#7c7c7c;stroke-width:0.17;stroke-linecap:round;stroke-linejoin:round;stroke-miterlimit:4;stroke-dasharray:none;stroke-opacity:1" />
    <path
       style="fill:none;fill-rule:evenodd;stroke:#7c7c7c;stroke-width:0.14;stroke-linecap:round;stroke-linejoin:round;stroke-miterlimit:4;stroke-dasharray:none;stroke-opacity:1"
       d="M 58.385154,70.805977 C 58.385154,70.805977 58.56753,69.151765 60.476794,67.145983 C 62.540719,64.977722 63.680873,64.892079 63.680873,64.892079"
       id="path3448"
       sodipodi:nodetypes="csc" />
    <path
       sodipodi:nodetypes="czc"
       id="path3458"
       d="M 64.055195,55.409291 C 64.055195,55.409291 62.001812,55.679876 57.623057,57.744158 C 53.227405,59.816405 52.833843,62.069983 52.833843,62.069983"
       style="fill:none;fill-rule:evenodd;stroke:#000000;stroke-width:0.80000001;stroke-linecap:round;stroke-linejoin:round;stroke-miterlimit:4;stroke-dasharray:none;stroke-opacity:1" />
    <path
       sodipodi:nodetypes="czc"
       id="path3460"
       d="M 66.459763,52.354911 C 66.459763,52.354911 59.96888,54.000496 55.590125,56.064778 C 51.194473,58.137025 50.756717,60.169632 50.756717,60.169632"
       style="fill:none;fill-rule:evenodd;stroke:#000000;stroke-width:0.77999997;stroke-linecap:round;stroke-linejoin:round;stroke-miterlimit:4;stroke-dasharray:none;stroke-opacity:1" />
    <path
       style="fill:none;fill-rule:evenodd;stroke:#000000;stroke-width:0.75999999;stroke-linecap:round;stroke-linejoin:round;stroke-miterlimit:4;stroke-dasharray:none;stroke-opacity:1"
       d="M 64.603608,50.940698 C 64.603608,50.940698 58.112725,52.586283 53.73397,54.650565 C 49.338318,56.722812 48.812173,58.534449 48.812173,58.534449"
       id="path3462"
       sodipodi:nodetypes="czc" />
    <path
       sodipodi:nodetypes="czc"
       id="path3464"
       d="M 63.419787,48.287208 C 59.796574,50.64883 55.154748,51.244911 51.612649,53.059575 C 48.07055,54.874239 47.125212,56.876516 47.125212,56.876516"
       style="fill:none;fill-rule:evenodd;stroke:#000000;stroke-width:0.74000001;stroke-linecap:round;stroke-linejoin:round;stroke-miterlimit:4;stroke-dasharray:none;stroke-opacity:1" />
    <path
       style="fill:none;fill-rule:evenodd;stroke:#000000;stroke-width:0.72000003;stroke-linecap:round;stroke-linejoin:round;stroke-miterlimit:4;stroke-dasharray:none;stroke-opacity:1"
       d="M 65.813632,44.185495 C 65.813632,44.185495 58.77276,48.351095 56.487369,49.022629 C 54.201978,49.694163 52.332221,50.119469 49.756494,51.645362 C 47.180767,53.171255 45.265916,55.366333 45.265916,55.366333"
       id="path3466"
       sodipodi:nodetypes="cszc" />
    <path
       style="fill:none;fill-rule:evenodd;stroke:#000000;stroke-width:0.69999999;stroke-linecap:round;stroke-linejoin:round;stroke-miterlimit:4;stroke-dasharray:none;stroke-opacity:1"
       d="M 61.8432,43.602086 C 61.8432,43.602086 56.839776,46.937202 54.637506,47.630994 C 52.435235,48.324785 50.664403,48.793965 47.988727,50.186953 C 45.313051,51.579942 43.553066,53.717283 43.553066,53.717283"
       id="path3468"
       sodipodi:nodetypes="cszc" />
    <path
       sodipodi:nodetypes="cszc"
       id="path3470"
       d="M 75.604463,37.570455 C 62.039282,37.657516 57.117113,44.318032 51.701563,46.488695 C 49.623636,47.321571 48.490185,47.682593 46.088378,48.905322 C 43.686571,50.128051 41.741106,52.126293 41.741106,52.126293"
       style="fill:none;fill-opacity:1;fill-rule:evenodd;stroke:#000000;stroke-width:0.68000000999999999;stroke-linecap:round;stroke-linejoin:round;stroke-miterlimit:4;stroke-dasharray:none;stroke-opacity:1" />
    <path
       style="fill:none;fill-rule:evenodd;stroke:#000000;stroke-width:0.66000002999999996;stroke-linecap:round;stroke-linejoin:round;stroke-miterlimit:4;stroke-dasharray:none;stroke-opacity:1"
       d="M 67.579113,35.601325 C 57.618099,37.55297 55.156312,42.747416 48.733974,45.429836 C 47.097173,46.113479 46.299107,46.205881 44.063028,47.561192 C 41.826949,48.916504 40.194309,50.667886 40.194309,50.667886"
       id="path3472"
       sodipodi:nodetypes="cszc" />
    <path
       sodipodi:nodetypes="cszc"
       id="path3474"
       d="M 51.831492,37.947612 C 49.631455,39.900198 49.402473,41.944137 47.227716,43.400371 C 45.427449,44.605843 44.236496,44.98675 42.199291,46.076896 C 40.162086,47.167042 38.60332,49.165284 38.60332,49.165284"
       style="fill:none;fill-rule:evenodd;stroke:url(#linearGradient6144);stroke-width:0.63999998999999996;stroke-linecap:round;stroke-linejoin:round;stroke-miterlimit:4;stroke-dasharray:none;stroke-opacity:1" />
    <rect
       style="fill:#c00000;fill-opacity:1;stroke:none;stroke-width:0.81999999;stroke-linecap:round;stroke-linejoin:round;stroke-miterlimit:4;stroke-dasharray:none;stroke-opacity:1"
       id="rect6103"
       width="6.3761039"
       height="2.0182128"
       x="-25.380756"
       y="-41.894974"
       transform="matrix(-0.9125553,0.4089534,-0.7403037,-0.6722725,0,0)" />
    <path
       style="fill:none;fill-rule:evenodd;stroke:#000000;stroke-width:0.60000001999999997;stroke-linecap:round;stroke-linejoin:round;marker-mid:none;stroke-miterlimit:4;stroke-dasharray:none;stroke-opacity:1"
       d="M 66.895608,16.453985 C 44.118018,21.717777 49.008047,31.979693 43.23722,38.784223 C 41.180161,41.209754 39.416428,42.009802 37.868262,42.939109 C 36.320096,43.868416 34.935204,45.541361 34.935204,45.541361"
       id="path3478"
       sodipodi:nodetypes="cszc" />
    <path
       sodipodi:nodetypes="cszc"
       id="path5288"
       d="M 45.937202,21.2353 C 40.075448,25.222008 45.467173,30.438059 42.056376,35.913118 C 39.994677,39.222586 37.924392,40.225989 35.967913,41.25973 C 34.011434,42.293471 33.079048,43.906177 33.079048,43.906177"
       style="fill:none;fill-rule:evenodd;stroke:url(#linearGradient6120);stroke-width:0.57999997999999997;stroke-linecap:round;stroke-linejoin:round;marker-mid:none;stroke-miterlimit:4;stroke-dasharray:none;stroke-opacity:1" />
    <path
       sodipodi:nodetypes="cszc"
       id="path5290"
       d="M 62.219055,20.784475 C 50.27997,25.597917 48.273865,38.61713 44.716163,41.648048 C 43.188466,42.949541 41.465649,43.635207 39.901194,44.574293 C 38.336739,45.513378 36.835553,47.264934 36.835553,47.264934"
       style="fill:none;fill-rule:evenodd;stroke:#000000;stroke-width:0.62000000000000000;stroke-linecap:round;stroke-linejoin:round;marker-mid:none;stroke-miterlimit:4;stroke-dasharray:none;stroke-opacity:1" />
    <path
       style="fill:none;fill-rule:evenodd;stroke:#000000;stroke-width:0.69999999;stroke-linecap:round;stroke-linejoin:round;stroke-miterlimit:4;stroke-dasharray:none;stroke-opacity:1"
       d="M 28.991378,46.348273 C 28.991378,46.348273 26.401729,46.491077 23.776466,48.425399 C 21.17215,50.344288 19.519094,52.903742 15.556349,55.187108"
       id="path5294"
       sodipodi:nodetypes="czz" />
    <path
       sodipodi:nodetypes="czz"
       id="path5296"
       d="M 30.714951,48.11604 C 30.714951,48.11604 27.904331,48.391427 25.279068,50.325749 C 22.674752,52.244638 20.756531,55.069257 16.793786,57.352623"
       style="fill:none;fill-rule:evenodd;stroke:#000000;stroke-width:0.72000003;stroke-linecap:round;stroke-linejoin:round;stroke-miterlimit:4;stroke-dasharray:none;stroke-opacity:1" />
    <path
       style="fill:none;fill-rule:evenodd;stroke:#000000;stroke-width:0.74000001;stroke-linecap:round;stroke-linejoin:round;stroke-miterlimit:4;stroke-dasharray:none;stroke-opacity:1"
       d="M 32.394331,49.795419 C 32.394331,49.795419 29.097575,50.42436 26.472312,52.358682 C 23.867996,54.277571 21.949775,57.10219 17.98703,59.385556"
       id="path5298"
       sodipodi:nodetypes="czz" />
    <path
       sodipodi:nodetypes="cz"
       id="path5300"
       d="M 28.15169,54.259031 C 25.547374,56.17792 23.629153,59.002539 19.666408,61.285905"
       style="fill:none;fill-rule:evenodd;stroke:#000000;stroke-width:0.75999999;stroke-linecap:round;stroke-linejoin:round;stroke-miterlimit:4;stroke-dasharray:none;stroke-opacity:1" />
    <path
       style="fill:none;fill-rule:evenodd;stroke:#000000;stroke-width:0.77999997;stroke-linecap:round;stroke-linejoin:round;stroke-miterlimit:4;stroke-dasharray:none;stroke-opacity:1"
       d="M 35.841476,53.596117 C 35.841476,53.596117 32.54472,54.225058 29.919457,56.15938 C 27.315141,58.078269 25.39692,60.902888 21.434175,63.186254"
       id="path5302"
       sodipodi:nodetypes="czz" />
    <path
       sodipodi:nodetypes="czz"
       id="path5304"
       d="M 37.388272,55.408078 C 37.388272,55.408078 34.091516,56.037019 31.466253,57.971341 C 28.861937,59.89023 26.678551,63.112597 22.715806,65.395963"
       style="fill:none;fill-rule:evenodd;stroke:#000000;stroke-width:0.80000001;stroke-linecap:round;stroke-linejoin:round;stroke-miterlimit:4;stroke-dasharray:none;stroke-opacity:1" />
    <path
       style="fill:none;fill-rule:evenodd;stroke:#000000;stroke-width:0.81999999;stroke-linecap:round;stroke-linejoin:round;stroke-miterlimit:4;stroke-dasharray:none;stroke-opacity:1"
       d="M 36.841318,57.764233 C 36.841318,57.764233 35.638312,57.893174 33.013049,59.827496 C 30.408733,61.746385 28.225347,64.968752 24.262602,67.252118"
       id="path5306"
       sodipodi:nodetypes="czz" />
    <path
       sodipodi:nodetypes="czz"
       id="path5308"
       d="M 40.614447,59.164582 C 40.614447,59.164582 37.317691,59.793523 34.692428,61.727845 C 32.088112,63.646734 29.933755,66.858378 25.97101,69.141744"
       style="fill:none;fill-rule:evenodd;stroke:#000000;stroke-width:0.83999997;stroke-linecap:round;stroke-linejoin:round;stroke-miterlimit:4;stroke-dasharray:none;stroke-opacity:1" />
    <path
       style="fill:none;fill-rule:evenodd;stroke:#000000;stroke-width:0.86000001;stroke-linecap:round;stroke-linejoin:round;stroke-miterlimit:4;stroke-dasharray:none;stroke-opacity:1"
       d="M 42.249631,61.064932 C 42.249631,61.064932 38.731904,61.649679 36.106641,63.584001 C 33.502325,65.50289 31.410468,68.979699 27.447723,71.263065"
       id="path5310"
       sodipodi:nodetypes="czz" />
    <path
       sodipodi:nodetypes="czz"
       id="path5312"
       d="M 44.061592,62.832699 C 44.061592,62.832699 40.543865,63.417446 37.918602,65.351768 C 35.314286,67.270657 33.159929,70.934966 29.197184,73.218332"
       style="fill:none;fill-rule:evenodd;stroke:#000000;stroke-width:0.88;stroke-linecap:round;stroke-linejoin:round;stroke-miterlimit:4;stroke-dasharray:none;stroke-opacity:1" />
    <path
       style="fill:none;fill-rule:evenodd;stroke:#000000;stroke-width:0.89999998;stroke-linecap:round;stroke-linejoin:round;stroke-miterlimit:4;stroke-dasharray:none;stroke-opacity:1"
       d="M 37.965398,68.564617 C 35.548582,71.233506 34.644225,73.022815 30.99398,75.493681"
       id="path5314"
       sodipodi:nodetypes="cz" />
    <path
       sodipodi:nodetypes="czz"
       id="path5316"
       d="M 47.552932,66.456621 C 47.552932,66.456621 44.035205,67.041368 41.409942,68.97569 C 38.805626,70.894579 36.151269,74.996388 32.751024,77.654754"
       style="fill:none;fill-rule:evenodd;stroke:#000000;stroke-width:0.92000002;stroke-linecap:round;stroke-linejoin:round;stroke-miterlimit:4;stroke-dasharray:none;stroke-opacity:1" />
    <path
       style="fill:none;fill-rule:evenodd;stroke:#000000;stroke-width:0.94;stroke-linecap:round;stroke-linejoin:round;stroke-miterlimit:4;stroke-dasharray:none;stroke-opacity:1"
       d="M 39.875,74.6875 L 40.9375,73.5625"
       id="path5318"
       sodipodi:nodetypes="cc" />
    <path
       sodipodi:nodetypes="cc"
       id="path5320"
       d="M 62.625,59.6875 L 64.083947,59.158471"
       style="fill:none;fill-rule:evenodd;stroke:#000000;stroke-width:0.81999999;stroke-linecap:round;stroke-linejoin:round;stroke-miterlimit:4;stroke-dasharray:none;stroke-opacity:1" />
    <rect
       style="fill:#c00000;fill-opacity:1;stroke:none;stroke-width:0.81999999;stroke-linecap:round;stroke-linejoin:round;stroke-miterlimit:4;stroke-dasharray:none;stroke-opacity:1"
       id="rect5560"
       width="19.790316"
       height="6.837954"
       x="69.949799"
       y="10.928592"
       transform="matrix(0.996378,-8.5034177e-2,9.5256758e-2,0.9954527,0,0)" />
    <rect
       transform="matrix(0.9715429,-0.2368637,0.4863389,0.8737703,0,0)"
       y="26.8622"
       x="44.044975"
       height="3.0678418"
       width="11.405074"
       id="rect6101"
       style="fill:#c00000;fill-opacity:1;stroke:none;stroke-width:0.81999999;stroke-linecap:round;stroke-linejoin:round;stroke-miterlimit:4;stroke-dasharray:none;stroke-opacity:1" />
    <path
       style="fill:#008000;fill-opacity:1;stroke:none;stroke-width:0.81999999;stroke-linecap:round;stroke-linejoin:round;stroke-miterlimit:4;stroke-dasharray:none;stroke-opacity:1"
       d="M 98.183188,21.473053 L 92.041551,20.396285 L 93.310693,14.722008 L 86.246754,13.514159 L 84.94687,19.184068 L 78.805232,18.1073 L 77.338057,24.65639 L 83.48509,25.704798 L 82.185206,31.374707 L 89.274492,32.615286 L 90.543634,26.941005 L 96.690668,27.989414 L 98.183188,21.473053 z"
       id="rect6105" />
    <path
       id="path6110"
       d="M 73.253078,31.166833 L 71.861961,28.063039 L 76.237473,27.062716 L 74.616222,23.501344 L 70.23304,24.486414 L 68.841922,21.382619 L 63.791008,22.536082 L 65.203664,25.634444 L 60.82048,26.619514 L 62.427863,30.201571 L 66.803376,29.201248 L 68.216031,32.299611 L 73.253078,31.166833 z"
       style="fill:#008000;fill-opacity:1;stroke:none;stroke-width:0.81999999;stroke-linecap:round;stroke-linejoin:round;stroke-miterlimit:4;stroke-dasharray:none;stroke-opacity:1" />
    <path
       style="fill:#008000;fill-opacity:1;stroke:none;stroke-width:0.81999999;stroke-linecap:round;stroke-linejoin:round;stroke-miterlimit:4;stroke-dasharray:none;stroke-opacity:1"
       d="M 59.569894,31.434479 L 57.449465,32.666847 L 55.641542,31.219613 L 53.214346,32.643241 L 55.012043,34.096849 L 52.891613,35.329216 L 54.977609,37.000132 L 57.088738,35.760755 L 58.886435,37.214363 L 61.333156,35.79137 L 59.525234,34.344137 L 61.636364,33.10476 L 59.569894,31.434479 z"
       id="path6112" />
  </g>
</svg>
